<?xml version="1.0" encoding="iso-8859-1"?>
<!-- Generator: Adobe Illustrator 19.0.0, SVG Export Plug-In . SVG Version: 6.00 Build 0)  -->
<svg version="1.1" id="Capa_1" xmlns="http://www.w3.org/2000/svg" xmlns:xlink="http://www.w3.org/1999/xlink" x="0px" y="0px"
	 viewBox="0 0 384 384" style="enable-background:new 0 0 384 384;" xml:space="preserve">
<g>
	<path style="fill:#00FFB0;" d="M330.96,294c-20.48,0-37.04,16.56-37.04,36.96c0,20.48,16.56,37.04,37.04,37.04
		S368,351.44,368,330.96C368,310.56,351.44,294,330.96,294z"/>
	<path style="fill:#00FFB0;" d="M191.92,294c-20.48,0-37.04,16.56-37.04,36.96c0,20.48,16.56,37.04,37.04,37.04
		c20.4,0,37.04-16.56,37.04-37.04C228.96,310.56,212.32,294,191.92,294z"/>
	<path style="fill:#00FFB0;" d="M53.04,16C32.56,16,16,32.56,16,53.04C16,73.44,32.56,90,53.04,90s37.04-16.56,37.04-36.96
		C90.08,32.56,73.52,16,53.04,16z"/>
</g>
<g>
	<path style="fill:#000A64;" d="M149.32,234.664c3.128,3.128,7.216,4.688,11.312,4.688s8.184-1.56,11.312-4.68L192,214.624
		l20.056,20.048c3.128,3.12,7.216,4.68,11.312,4.68s8.192-1.56,11.32-4.688c6.248-6.248,6.248-16.384,0-22.632L214.64,192
		l20.04-20.032c6.248-6.248,6.248-16.384,0-22.632c-6.248-6.24-16.376-6.248-22.632-0.008L192,169.376l-20.056-20.048
		c-6.256-6.24-16.384-6.232-22.632,0.008c-6.248,6.248-6.248,16.384,0,22.632L169.36,192l-20.04,20.032
		C143.072,218.28,143.072,228.416,149.32,234.664z"/>
	<path style="fill:#000A64;" d="M373.76,149.336c-6.248-6.24-16.376-6.248-22.632-0.008l-20.056,20.048l-20.064-20.048
		c-6.248-6.24-16.384-6.232-22.624,0.008c-6.248,6.248-6.24,16.384,0.008,22.632L308.44,192l-20.04,20.032
		c-6.248,6.248-6.256,16.384-0.008,22.632c3.128,3.128,7.216,4.688,11.32,4.688c4.096,0,8.184-1.56,11.312-4.68l20.064-20.048
		l20.056,20.048c3.128,3.12,7.216,4.68,11.312,4.68s8.192-1.56,11.32-4.688c6.248-6.248,6.248-16.384,0-22.632L353.712,192
		l20.048-20.032C380.008,165.72,380.008,155.584,373.76,149.336z"/>
	<path style="fill:#000A64;" d="M53.136,138.976c-29.24,0-53.032,23.784-53.032,53.016c0,29.24,23.792,53.032,53.032,53.032
		c29.248,0,53.04-23.792,53.04-53.032C106.176,162.76,82.384,138.976,53.136,138.976z M53.136,213.024
		c-11.6,0-21.032-9.44-21.032-21.032c0-11.584,9.432-21.016,21.032-21.016s21.04,9.432,21.04,21.016
		C74.176,203.584,64.736,213.024,53.136,213.024z"/>
	<path style="fill:#000A64;" d="M95.712,288.32c-6.248-6.248-16.376-6.248-22.632,0l-20.048,20.04l-20.056-20.048
		c-6.248-6.232-16.376-6.24-22.624,0.008s-6.24,16.384,0.008,22.632l20.04,20.024L10.36,351c-6.248,6.24-6.256,16.376-0.008,22.624
		c3.128,3.136,7.224,4.696,11.32,4.696c4.088,0,8.184-1.56,11.312-4.68L53.04,353.6l20.056,20.04c3.12,3.12,7.216,4.68,11.312,4.68
		s8.192-1.56,11.32-4.688c6.248-6.248,6.24-16.384-0.008-22.632l-20.04-20.024l20.04-20.032
		C101.96,304.704,101.96,294.568,95.712,288.32z"/>
	<path style="fill:#000A64;" d="M288.288,93.816c3.128,3.128,7.216,4.688,11.32,4.688c4.096,0,8.184-1.56,11.312-4.68l20.056-20.048
		l20.056,20.048c3.128,3.12,7.216,4.68,11.312,4.68s8.192-1.56,11.32-4.696c6.248-6.248,6.24-16.376-0.008-22.624l-20.04-20.024
		l20.04-20.032c6.248-6.248,6.256-16.384,0.008-22.632c-6.248-6.248-16.376-6.24-22.624-0.008l-20.064,20.048L310.92,8.496
		c-6.248-6.248-16.376-6.248-22.632,0c-6.248,6.248-6.248,16.384,0,22.624l20.048,20.032l-20.048,20.032
		C282.04,77.432,282.04,87.56,288.288,93.816z"/>
	<path style="fill:#000A64;" d="M191.888,0c-29.248,0-53.04,23.784-53.04,53.008c0,29.24,23.792,53.032,53.04,53.032
		c29.248,0,53.04-23.792,53.04-53.032C244.928,23.784,221.136,0,191.888,0z M191.888,74.04c-11.6,0-21.04-9.44-21.04-21.032
		c0-11.584,9.44-21.008,21.04-21.008s21.04,9.424,21.04,21.008C212.928,64.6,203.488,74.04,191.888,74.04z"/>
	<path style="fill:#000A64;" d="M53.032,106.04c29.248,0,53.04-23.792,53.04-53.032C106.072,23.784,82.28,0,53.032,0
		C23.792,0,0,23.784,0,53.008C0,82.248,23.792,106.04,53.032,106.04z M53.032,32c11.6,0,21.04,9.424,21.04,21.008
		c0,11.592-9.44,21.032-21.04,21.032S32,64.6,32,53.008C32,41.424,41.44,32,53.032,32z"/>
	<path style="fill:#000A64;" d="M191.888,277.96c-29.248,0-53.04,23.792-53.04,53.032c0,29.224,23.792,53.008,53.04,53.008
		c29.248,0,53.04-23.784,53.04-53.008C244.928,301.752,221.136,277.96,191.888,277.96z M191.888,352
		c-11.6,0-21.04-9.424-21.04-21.008c0-11.592,9.44-21.032,21.04-21.032s21.04,9.44,21.04,21.032
		C212.928,342.576,203.488,352,191.888,352z"/>
	<path style="fill:#000A64;" d="M330.96,277.96c-29.248,0-53.04,23.792-53.04,53.032c0,29.224,23.792,53.008,53.04,53.008
		c29.248,0,53.04-23.784,53.04-53.008C384,301.752,360.208,277.96,330.96,277.96z M330.96,352c-11.6,0-21.04-9.424-21.04-21.008
		c0-11.592,9.44-21.032,21.04-21.032S352,319.4,352,330.992C352,342.576,342.56,352,330.96,352z"/>
</g>
<g>
</g>
<g>
</g>
<g>
</g>
<g>
</g>
<g>
</g>
<g>
</g>
<g>
</g>
<g>
</g>
<g>
</g>
<g>
</g>
<g>
</g>
<g>
</g>
<g>
</g>
<g>
</g>
<g>
</g>
</svg>
